<?xml version="1.0" encoding="UTF-8" standalone="no"?>
<svg
   xmlns:osb="http://www.openswatchbook.org/uri/2009/osb"
   xmlns:dc="http://purl.org/dc/elements/1.1/"
   xmlns:cc="http://creativecommons.org/ns#"
   xmlns:rdf="http://www.w3.org/1999/02/22-rdf-syntax-ns#"
   xmlns:svg="http://www.w3.org/2000/svg"
   xmlns="http://www.w3.org/2000/svg"
   xmlns:xlink="http://www.w3.org/1999/xlink"
   xmlns:sodipodi="http://sodipodi.sourceforge.net/DTD/sodipodi-0.dtd"
   xmlns:inkscape="http://www.inkscape.org/namespaces/inkscape"
   viewBox="0 0 31.999998 32"
   version="1.1"
   id="svg43"
   sodipodi:docname="favicon.svg"
   inkscape:version="0.92.5 (2060ec1f9f, 2020-04-08)"
   width="32"
   height="32"
   inkscape:export-filename="/home/femike/Projects/JS/Node/lib-nest/swagger-protect/ui/swagger-protect-ui/public/favicon.png"
   inkscape:export-xdpi="96"
   inkscape:export-ydpi="96">
  <metadata
     id="metadata47">
    <rdf:RDF>
      <cc:Work
         rdf:about="">
        <dc:format>image/svg+xml</dc:format>
        <dc:type
           rdf:resource="http://purl.org/dc/dcmitype/StillImage" />
        <dc:title></dc:title>
      </cc:Work>
    </rdf:RDF>
  </metadata>
  <sodipodi:namedview
     pagecolor="#ffffff"
     bordercolor="#666666"
     borderopacity="1"
     objecttolerance="10"
     gridtolerance="10"
     guidetolerance="10"
     inkscape:pageopacity="0"
     inkscape:pageshadow="2"
     inkscape:window-width="2560"
     inkscape:window-height="1440"
     id="namedview45"
     showgrid="false"
     showguides="true"
     inkscape:guide-bbox="true"
     inkscape:zoom="19.569658"
     inkscape:cx="20.325769"
     inkscape:cy="25.874438"
     inkscape:window-x="0"
     inkscape:window-y="0"
     inkscape:window-maximized="1"
     inkscape:current-layer="svg43"
     fit-margin-top="0"
     fit-margin-left="0"
     fit-margin-right="0"
     fit-margin-bottom="0" />
  <defs
     id="defs7">
    <linearGradient
       id="linearGradient2549"
       osb:paint="solid">
      <stop
         style="stop-color:#e6e6e6;stop-opacity:1;"
         offset="0"
         id="stop2547" />
    </linearGradient>
    <style
       id="style2">
      .cls-1 {
        clip-path: url(#clip-SW_TM-logo-on-dark);
      }

      .cls-2 {
        fill: #fff;
      }

      .cls-3 {
        fill: #85ea2d;
      }

      .cls-4 {
        fill: #173647;
      }
    </style>
    <clipPath
       id="clip-SW_TM-logo-on-dark">
      <rect
         width="407"
         height="116"
         id="rect4"
         x="0"
         y="0" />
    </clipPath>
    <filter
       style="color-interpolation-filters:sRGB"
       inkscape:label="Drop Shadow"
       id="filter4851">
      <feFlood
         flood-opacity="0.498039"
         flood-color="rgb(0,0,0)"
         result="flood"
         id="feFlood4841" />
      <feComposite
         in="flood"
         in2="SourceGraphic"
         operator="in"
         result="composite1"
         id="feComposite4843" />
      <feGaussianBlur
         in="composite1"
         stdDeviation="1.6"
         result="blur"
         id="feGaussianBlur4845" />
      <feOffset
         dx="-1.5"
         dy="3.4"
         result="offset"
         id="feOffset4847" />
      <feComposite
         in="SourceGraphic"
         in2="offset"
         operator="over"
         result="composite2"
         id="feComposite4849" />
    </filter>
    <linearGradient
       inkscape:collect="always"
       xlink:href="#linearGradient2677"
       id="linearGradient2679-7"
       x1="43.124866"
       y1="-125.10158"
       x2="80.447266"
       y2="-159.22656"
       gradientUnits="userSpaceOnUse"
       gradientTransform="translate(6.949534,-16.76064)" />
    <linearGradient
       inkscape:collect="always"
       id="linearGradient2677">
      <stop
         style="stop-color:#000000;stop-opacity:1;"
         offset="0"
         id="stop2673" />
      <stop
         style="stop-color:#000000;stop-opacity:0;"
         offset="1"
         id="stop2675" />
    </linearGradient>
    <linearGradient
       inkscape:collect="always"
       xlink:href="#linearGradient1057"
       id="linearGradient1065"
       x1="52.065567"
       y1="-167.73416"
       x2="71.261925"
       y2="-140.05643"
       gradientUnits="userSpaceOnUse"
       gradientTransform="translate(6.949534,-16.76064)" />
    <linearGradient
       inkscape:collect="always"
       id="linearGradient1057">
      <stop
         style="stop-color:#ffffff;stop-opacity:1;"
         offset="0"
         id="stop1053" />
      <stop
         style="stop-color:#ffffff;stop-opacity:0.00826446"
         offset="1"
         id="stop1055" />
    </linearGradient>
    <filter
       style="color-interpolation-filters:sRGB"
       inkscape:label="Drop Shadow"
       id="filter5625">
      <feFlood
         flood-opacity="0.498039"
         flood-color="rgb(0,0,0)"
         result="flood"
         id="feFlood5615" />
      <feComposite
         in="flood"
         in2="SourceGraphic"
         operator="out"
         result="composite1"
         id="feComposite5617" />
      <feGaussianBlur
         in="composite1"
         stdDeviation="0.4"
         result="blur"
         id="feGaussianBlur5619" />
      <feOffset
         dx="-0.6"
         dy="0.5"
         result="offset"
         id="feOffset5621" />
      <feComposite
         in="offset"
         in2="SourceGraphic"
         operator="atop"
         result="composite2"
         id="feComposite5623" />
    </filter>
  </defs>
  <g
     id="g5695"
     transform="matrix(0.24787275,0,0,0.24787275,-30.633931,46.656169)">
    <path
       style="fill:#85ea2d"
       inkscape:connector-curvature="0"
       d="m 188.22793,-90.13713 a 47.642,47.642 0 1 1 47.643,-47.642 47.642,47.642 0 0 1 -47.643,47.642 z"
       class="cls-3"
       data-name="Path 2938"
       id="Path_2938" />
    <path
       style="fill:#85ea2d"
       inkscape:connector-curvature="0"
       d="m 188.22793,-183.03713 a 45.258,45.258 0 1 1 -45.258,45.258 45.258,45.258 0 0 1 45.258,-45.258 m 0,-4.769 a 50.027,50.027 0 1 0 50.027,50.027 50.027,50.027 0 0 0 -50.027,-50.027 z"
       class="cls-3"
       data-name="Path 2939"
       id="Path_2939" />
    <path
       sodipodi:nodetypes="cccccccccccccccccccccccccccccccccccccccccccccccccccccccccccccccccccccc"
       style="fill:#173647"
       inkscape:connector-curvature="0"
       d="m 169.69993,-153.95213 c -0.154,1.712 0.058,3.482 -0.057,5.213 -0.1259,1.73116 -0.35733,3.45303 -0.693,5.156 -0.56142,2.40011 -2.03094,4.48934 -4.1,5.829 4.079,2.654 4.54,6.771 4.81,10.946 0.135,2.25 0.077,4.52 0.308,6.752 0.173,1.731 0.846,2.174 2.636,2.231 0.73,0.02 1.48,0 2.327,0 v 5.349 c -5.29,0.9 -9.657,-0.6 -10.734,-5.079 -0.35447,-1.64596 -0.57321,-3.31824 -0.654,-5 -0.117,-1.789 0.076,-3.578 -0.058,-5.367 -0.386,-4.906 -1.02,-6.56 -5.713,-6.791 v -6.1 c 0.33912,-0.0771 0.68234,-0.13483 1.028,-0.173 2.577,-0.135 3.674,-0.924 4.231,-3.463 0.26752,-1.42907 0.42829,-2.87606 0.481,-4.329 0.056,-2.81042 0.25623,-5.61612 0.6,-8.406 0.673,-3.982 3.136,-5.906 7.234,-6.137 1.154,-0.057 2.327,0 3.655,0 v 5.464 c -0.558,0.038 -1.039,0.115 -1.539,0.115 -3.336,-0.115 -3.51,1.02 -3.762,3.79 z m 6.406,2.658 h -0.077 c -4.73294,-0.2887 -5.08439,6.84294 -0.346,7.021 h 0.231 c 1.90663,0.11038 3.54231,-1.34451 3.655,-3.251 v -0.192 c 0.0306,-1.94311 -1.51795,-3.54404 -3.461,-3.578 z m 12.062,0 c -1.85832,-0.0613 -3.41576,1.39285 -3.482,3.251 -0.003,0.10938 0.003,0.21884 0.02,0.327 -0.0938,1.99347 1.58961,3.61332 3.578,3.443 1.99514,0.11876 3.62723,-1.56783 3.443,-3.558 0.0992,-1.98999 -1.57038,-3.61545 -3.557,-3.463 z m 12.351,-2 c -1.96603,-0.0354 -3.5951,1.51656 -3.655,3.482 -0.006,1.95566 1.58034,3.54289 3.536,3.539 h 0.039 c 1.769,0.309 3.559,-1.4 3.674,-3.462 -0.007,-1.97889 -1.62116,-3.57508 -3.6,-3.559 z m 16.948,12.288 c -2.232,-0.1 -3.348,-0.846 -3.9,-2.962 -0.34598,-1.35467 -0.55865,-2.73993 -0.635,-4.136 -0.154,-2.578 -0.135,-5.175 -0.308,-7.753 -0.4,-6.117 -4.828,-8.252 -11.254,-7.195 v 5.31 c 1.019,0 1.808,0 2.6,0.019 1.366,0.019 2.4,0.539 2.539,2.059 0.135,1.385 0.135,2.789 0.27,4.193 0.269,2.79 0.422,5.618 0.9,8.369 0.55121,2.2297 1.96034,4.15167 3.921,5.348 -3.4,2.289 -4.406,5.559 -4.578,9.234 -0.1,2.52 -0.154,5.059 -0.289,7.6 -0.115,2.308 -0.923,3.058 -3.251,3.116 -0.654,0.019 -1.289,0.077 -2.019,0.115 v 5.445 c 1.365,0 2.616,0.077 3.866,0 3.886,-0.231 6.233,-2.117 7,-5.887 0.32454,-2.07728 0.51527,-4.17326 0.571,-6.275 0.135,-1.923 0.116,-3.866 0.308,-5.771 0.289,-2.982 1.655,-4.213 4.636,-4.4 0.28199,-0.0347 0.55953,-0.099 0.828,-0.192 v -6.1 c -0.5,-0.058 -0.843,-0.115 -1.208,-0.135 z"
       class="cls-4"
       data-name="Path 2940"
       id="Path_2940" />
    <g
       transform="matrix(1.6291051,0,0,1.1232536,95.846018,55.293446)"
       id="g4883">
      <path
         inkscape:connector-curvature="0"
         style="opacity:1;fill:#ffffff;fill-opacity:1;fill-rule:nonzero;stroke:none;stroke-width:0.2;stroke-linecap:butt;stroke-linejoin:miter;stroke-miterlimit:4;stroke-dasharray:none;stroke-opacity:1;filter:url(#filter4851)"
         d="m 57.062815,-180.45791 c -10.07173,-0.0165 -20.224909,1.47683 -30.828125,4.58789 -3.194548,41.10255 21.664952,60.97716 30.582032,66.85937 29.396185,-20.79928 32.309441,-51.30427 30.580078,-66.97655 -10.27293,-2.92862 -20.262255,-4.45416 -30.333985,-4.47071 z"
         id="path1018-2"
         sodipodi:nodetypes="ccccc" />
      <path
         style="fill:#d40000;stroke:#6d6d6d;stroke-width:0.2;stroke-linecap:butt;stroke-linejoin:miter;stroke-miterlimit:4;stroke-dasharray:none;stroke-opacity:1"
         d="m 29.944315,-172.09906 c 18.638496,-5.46868 35.698774,-5.25017 53.756688,-0.1022 1.51995,13.77449 -1.041811,40.58599 -26.878344,58.86663 -7.83729,-5.16992 -29.686057,-22.63909 -26.878344,-58.76443 z"
         id="path1018"
         inkscape:connector-curvature="0"
         sodipodi:nodetypes="cccc" />
      <path
         style="opacity:1;fill:url(#linearGradient1065);fill-opacity:1;stroke:none;stroke-width:0.2;stroke-linecap:butt;stroke-linejoin:miter;stroke-miterlimit:4;stroke-dasharray:none;stroke-opacity:1"
         d="m 56.413538,-176.13062 c 2.122713,7.48694 2.853282,19.54013 3.289902,32.55747 l 18.789063,-11.49023 c 1.388612,-5.47805 2.36693,-11.30162 2.465047,-17.86639 -7.356377,-1.76692 -14.689857,-3.23815 -24.544012,-3.20085 z"
         id="path1041"
         inkscape:connector-curvature="0"
         sodipodi:nodetypes="ccccc" />
      <path
         inkscape:connector-curvature="0"
         style="opacity:0.23999999;fill:url(#linearGradient2679-7);fill-opacity:1;fill-rule:nonzero;stroke:#dbdbdb;stroke-width:0.2;stroke-linecap:butt;stroke-linejoin:miter;stroke-miterlimit:4;stroke-dasharray:none;stroke-opacity:1"
         d="m 57.062815,-180.45791 c -10.07173,-0.0165 -20.224909,1.47683 -30.828125,4.58789 -3.194548,41.10253 21.664952,60.97714 30.582032,66.85935 29.396185,-20.79928 32.309441,-51.30427 30.580078,-66.97653 -10.27293,-2.92862 -20.262255,-4.45416 -30.333985,-4.47071 z m -0.02148,4.32618 c 8.852121,0.0145 17.631199,1.3557 26.660156,3.92968 1.51995,13.77447 -1.042373,40.58652 -26.878906,58.86716 -7.83729,-5.16992 -29.686618,-22.63832 -26.878905,-58.76364 9.319247,-2.73434 18.245534,-4.04774 27.097655,-4.0332 z"
         id="path1018-2-3" />
    </g>
    <rect
       ry="2.9473009"
       y="-109.65118"
       x="166.10257"
       height="11.789204"
       width="45.324707"
       id="rect935"
       style="opacity:1;vector-effect:none;fill:#ffffff;fill-opacity:1;fill-rule:nonzero;stroke-width:10.31283569;stroke-linecap:butt;stroke-linejoin:miter;stroke-miterlimit:4;stroke-dasharray:none;stroke-dashoffset:0;stroke-opacity:1;filter:url(#filter5625)" />
    <circle
       r="2.8104732"
       cy="-103.67681"
       cx="172.67764"
       id="path5629"
       style="opacity:1;vector-effect:none;fill:#000000;fill-opacity:1;fill-rule:nonzero;stroke:none;stroke-width:0.2;stroke-linecap:butt;stroke-linejoin:miter;stroke-miterlimit:4;stroke-dasharray:none;stroke-dashoffset:0;stroke-opacity:1" />
    <circle
       r="2.8104732"
       cy="-103.64687"
       cx="180.54079"
       id="path5629-6"
       style="opacity:1;vector-effect:none;fill:#000000;fill-opacity:1;fill-rule:nonzero;stroke:none;stroke-width:0.2;stroke-linecap:butt;stroke-linejoin:miter;stroke-miterlimit:4;stroke-dasharray:none;stroke-dashoffset:0;stroke-opacity:1" />
    <circle
       r="2.8104732"
       cy="-103.6768"
       cx="188.67764"
       id="path5629-0"
       style="opacity:1;vector-effect:none;fill:#000000;fill-opacity:1;fill-rule:nonzero;stroke:none;stroke-width:0.2;stroke-linecap:butt;stroke-linejoin:miter;stroke-miterlimit:4;stroke-dasharray:none;stroke-dashoffset:0;stroke-opacity:1" />
    <circle
       r="2.8104732"
       cy="-103.64687"
       cx="196.54079"
       id="path5629-6-6"
       style="opacity:1;vector-effect:none;fill:#808080;fill-opacity:1;fill-rule:nonzero;stroke:none;stroke-width:0.2;stroke-linecap:butt;stroke-linejoin:miter;stroke-miterlimit:4;stroke-dasharray:none;stroke-dashoffset:0;stroke-opacity:1" />
    <circle
       r="2.8104732"
       cy="-103.64687"
       cx="204.54079"
       id="path5629-6-6-2"
       style="opacity:1;vector-effect:none;fill:#808080;fill-opacity:1;fill-rule:nonzero;stroke:none;stroke-width:0.2;stroke-linecap:butt;stroke-linejoin:miter;stroke-miterlimit:4;stroke-dasharray:none;stroke-dashoffset:0;stroke-opacity:1" />
  </g>
</svg>
