<?xml version="1.0" encoding="UTF-8" standalone="no"?>
<svg
   xmlns:osb="http://www.openswatchbook.org/uri/2009/osb"
   xmlns:dc="http://purl.org/dc/elements/1.1/"
   xmlns:cc="http://creativecommons.org/ns#"
   xmlns:rdf="http://www.w3.org/1999/02/22-rdf-syntax-ns#"
   xmlns:svg="http://www.w3.org/2000/svg"
   xmlns="http://www.w3.org/2000/svg"
   xmlns:xlink="http://www.w3.org/1999/xlink"
   xmlns:sodipodi="http://sodipodi.sourceforge.net/DTD/sodipodi-0.dtd"
   xmlns:inkscape="http://www.inkscape.org/namespaces/inkscape"
   viewBox="0 0 154.40425 149.85371"
   version="1.1"
   id="svg43"
   sodipodi:docname="logo.svg"
   inkscape:version="0.92.5 (2060ec1f9f, 2020-04-08)"
   width="154.40425"
   height="149.85371"
   inkscape:export-filename="/home/femike/Projects/JS/Node/lib-nest/swagger-protect/ui/swagger-protect-ui/src/assets/logo.png"
   inkscape:export-xdpi="124.2812"
   inkscape:export-ydpi="124.2812">
  <metadata
     id="metadata47">
    <rdf:RDF>
      <cc:Work
         rdf:about="">
        <dc:format>image/svg+xml</dc:format>
        <dc:type
           rdf:resource="http://purl.org/dc/dcmitype/StillImage" />
        <dc:title></dc:title>
      </cc:Work>
    </rdf:RDF>
  </metadata>
  <sodipodi:namedview
     pagecolor="#ffffff"
     bordercolor="#666666"
     borderopacity="1"
     objecttolerance="10"
     gridtolerance="10"
     guidetolerance="10"
     inkscape:pageopacity="0"
     inkscape:pageshadow="2"
     inkscape:window-width="1920"
     inkscape:window-height="1056"
     id="namedview45"
     showgrid="false"
     showguides="true"
     inkscape:guide-bbox="true"
     inkscape:zoom="3.9560599"
     inkscape:cx="73.311135"
     inkscape:cy="89.903519"
     inkscape:window-x="2560"
     inkscape:window-y="360"
     inkscape:window-maximized="1"
     inkscape:current-layer="svg43"
     fit-margin-top="0"
     fit-margin-left="0"
     fit-margin-right="0"
     fit-margin-bottom="0" />
  <defs
     id="defs7">
    <linearGradient
       inkscape:collect="always"
       id="linearGradient5705">
      <stop
         style="stop-color:#000000;stop-opacity:1;"
         offset="0"
         id="stop5701" />
      <stop
         style="stop-color:#000000;stop-opacity:0;"
         offset="1"
         id="stop5703" />
    </linearGradient>
    <linearGradient
       id="linearGradient2549"
       osb:paint="solid">
      <stop
         style="stop-color:#e6e6e6;stop-opacity:1;"
         offset="0"
         id="stop2547" />
    </linearGradient>
    <style
       id="style2">
      .cls-1 {
        clip-path: url(#clip-SW_TM-logo-on-dark);
      }

      .cls-2 {
        fill: #fff;
      }

      .cls-3 {
        fill: #85ea2d;
      }

      .cls-4 {
        fill: #173647;
      }
    </style>
    <clipPath
       id="clip-SW_TM-logo-on-dark">
      <rect
         width="407"
         height="116"
         id="rect4"
         x="0"
         y="0" />
    </clipPath>
    <filter
       style="color-interpolation-filters:sRGB"
       inkscape:label="Drop Shadow"
       id="filter4851">
      <feFlood
         flood-opacity="0.498039"
         flood-color="rgb(0,0,0)"
         result="flood"
         id="feFlood4841" />
      <feComposite
         in="flood"
         in2="SourceGraphic"
         operator="in"
         result="composite1"
         id="feComposite4843" />
      <feGaussianBlur
         in="composite1"
         stdDeviation="1.6"
         result="blur"
         id="feGaussianBlur4845" />
      <feOffset
         dx="-1.5"
         dy="3.4"
         result="offset"
         id="feOffset4847" />
      <feComposite
         in="SourceGraphic"
         in2="offset"
         operator="over"
         result="composite2"
         id="feComposite4849" />
    </filter>
    <linearGradient
       inkscape:collect="always"
       xlink:href="#linearGradient2677"
       id="linearGradient2679-7"
       x1="43.124866"
       y1="-125.10158"
       x2="80.447266"
       y2="-159.22656"
       gradientUnits="userSpaceOnUse"
       gradientTransform="translate(6.949534,-16.76064)" />
    <linearGradient
       inkscape:collect="always"
       id="linearGradient2677">
      <stop
         style="stop-color:#000000;stop-opacity:1;"
         offset="0"
         id="stop2673" />
      <stop
         style="stop-color:#000000;stop-opacity:0;"
         offset="1"
         id="stop2675" />
    </linearGradient>
    <linearGradient
       inkscape:collect="always"
       xlink:href="#linearGradient1057"
       id="linearGradient1065"
       x1="52.065567"
       y1="-167.73416"
       x2="71.261925"
       y2="-140.05643"
       gradientUnits="userSpaceOnUse"
       gradientTransform="translate(6.949534,-16.76064)" />
    <linearGradient
       inkscape:collect="always"
       id="linearGradient1057">
      <stop
         style="stop-color:#ffffff;stop-opacity:1;"
         offset="0"
         id="stop1053" />
      <stop
         style="stop-color:#ffffff;stop-opacity:0.00826446"
         offset="1"
         id="stop1055" />
    </linearGradient>
    <filter
       style="color-interpolation-filters:sRGB"
       inkscape:label="Drop Shadow"
       id="filter5625">
      <feFlood
         flood-opacity="0.498039"
         flood-color="rgb(0,0,0)"
         result="flood"
         id="feFlood5615" />
      <feComposite
         in="flood"
         in2="SourceGraphic"
         operator="out"
         result="composite1"
         id="feComposite5617" />
      <feGaussianBlur
         in="composite1"
         stdDeviation="0.4"
         result="blur"
         id="feGaussianBlur5619" />
      <feOffset
         dx="-0.6"
         dy="0.5"
         result="offset"
         id="feOffset5621" />
      <feComposite
         in="offset"
         in2="SourceGraphic"
         operator="atop"
         result="composite2"
         id="feComposite5623" />
    </filter>
    <linearGradient
       inkscape:collect="always"
       xlink:href="#linearGradient5705"
       id="linearGradient5707"
       x1="118.44678"
       y1="99.993988"
       x2="284.32669"
       y2="99.993988"
       gradientUnits="userSpaceOnUse" />
    <pattern
       y="0"
       x="0"
       height="6"
       width="6"
       patternUnits="userSpaceOnUse"
       id="EMFhbasepattern" />
  </defs>
  <g
     id="g5695"
     transform="translate(-109.64916,187.80613)">
    <path
       style="fill:#85ea2d"
       inkscape:connector-curvature="0"
       d="m 188.22793,-90.13713 a 47.642,47.642 0 1 1 47.643,-47.642 47.642,47.642 0 0 1 -47.643,47.642 z"
       class="cls-3"
       data-name="Path 2938"
       id="Path_2938" />
    <path
       style="fill:#85ea2d"
       inkscape:connector-curvature="0"
       d="m 188.22793,-183.03713 a 45.258,45.258 0 1 1 -45.258,45.258 45.258,45.258 0 0 1 45.258,-45.258 m 0,-4.769 a 50.027,50.027 0 1 0 50.027,50.027 50.027,50.027 0 0 0 -50.027,-50.027 z"
       class="cls-3"
       data-name="Path 2939"
       id="Path_2939" />
    <path
       sodipodi:nodetypes="cccccccccccccccccccccccccccccccccccccccccccccccccccccccccccccccccccccc"
       style="fill:#173647"
       inkscape:connector-curvature="0"
       d="m 169.69993,-153.95213 c -0.154,1.712 0.058,3.482 -0.057,5.213 -0.1259,1.73116 -0.35733,3.45303 -0.693,5.156 -0.56142,2.40011 -2.03094,4.48934 -4.1,5.829 4.079,2.654 4.54,6.771 4.81,10.946 0.135,2.25 0.077,4.52 0.308,6.752 0.173,1.731 0.846,2.174 2.636,2.231 0.73,0.02 1.48,0 2.327,0 v 5.349 c -5.29,0.9 -9.657,-0.6 -10.734,-5.079 -0.35447,-1.64596 -0.57321,-3.31824 -0.654,-5 -0.117,-1.789 0.076,-3.578 -0.058,-5.367 -0.386,-4.906 -1.02,-6.56 -5.713,-6.791 v -6.1 c 0.33912,-0.0771 0.68234,-0.13483 1.028,-0.173 2.577,-0.135 3.674,-0.924 4.231,-3.463 0.26752,-1.42907 0.42829,-2.87606 0.481,-4.329 0.056,-2.81042 0.25623,-5.61612 0.6,-8.406 0.673,-3.982 3.136,-5.906 7.234,-6.137 1.154,-0.057 2.327,0 3.655,0 v 5.464 c -0.558,0.038 -1.039,0.115 -1.539,0.115 -3.336,-0.115 -3.51,1.02 -3.762,3.79 z m 6.406,2.658 h -0.077 c -4.73294,-0.2887 -5.08439,6.84294 -0.346,7.021 h 0.231 c 1.90663,0.11038 3.54231,-1.34451 3.655,-3.251 v -0.192 c 0.0306,-1.94311 -1.51795,-3.54404 -3.461,-3.578 z m 12.062,0 c -1.85832,-0.0613 -3.41576,1.39285 -3.482,3.251 -0.003,0.10938 0.003,0.21884 0.02,0.327 -0.0938,1.99347 1.58961,3.61332 3.578,3.443 1.99514,0.11876 3.62723,-1.56783 3.443,-3.558 0.0992,-1.98999 -1.57038,-3.61545 -3.557,-3.463 z m 12.351,-2 c -1.96603,-0.0354 -3.5951,1.51656 -3.655,3.482 -0.006,1.95566 1.58034,3.54289 3.536,3.539 h 0.039 c 1.769,0.309 3.559,-1.4 3.674,-3.462 -0.007,-1.97889 -1.62116,-3.57508 -3.6,-3.559 z m 16.948,12.288 c -2.232,-0.1 -3.348,-0.846 -3.9,-2.962 -0.34598,-1.35467 -0.55865,-2.73993 -0.635,-4.136 -0.154,-2.578 -0.135,-5.175 -0.308,-7.753 -0.4,-6.117 -4.828,-8.252 -11.254,-7.195 v 5.31 c 1.019,0 1.808,0 2.6,0.019 1.366,0.019 2.4,0.539 2.539,2.059 0.135,1.385 0.135,2.789 0.27,4.193 0.269,2.79 0.422,5.618 0.9,8.369 0.55121,2.2297 1.96034,4.15167 3.921,5.348 -3.4,2.289 -4.406,5.559 -4.578,9.234 -0.1,2.52 -0.154,5.059 -0.289,7.6 -0.115,2.308 -0.923,3.058 -3.251,3.116 -0.654,0.019 -1.289,0.077 -2.019,0.115 v 5.445 c 1.365,0 2.616,0.077 3.866,0 3.886,-0.231 6.233,-2.117 7,-5.887 0.32454,-2.07728 0.51527,-4.17326 0.571,-6.275 0.135,-1.923 0.116,-3.866 0.308,-5.771 0.289,-2.982 1.655,-4.213 4.636,-4.4 0.28199,-0.0347 0.55953,-0.099 0.828,-0.192 v -6.1 c -0.5,-0.058 -0.843,-0.115 -1.208,-0.135 z"
       class="cls-4"
       data-name="Path 2940"
       id="Path_2940" />
    <g
       transform="matrix(1.6291051,0,0,1.1232536,95.846018,55.293446)"
       id="g4883">
      <path
         inkscape:connector-curvature="0"
         style="opacity:1;fill:#ffffff;fill-opacity:1;fill-rule:nonzero;stroke:none;stroke-width:0.2;stroke-linecap:butt;stroke-linejoin:miter;stroke-miterlimit:4;stroke-dasharray:none;stroke-opacity:1;filter:url(#filter4851)"
         d="m 57.062815,-180.45791 c -10.07173,-0.0165 -20.224909,1.47683 -30.828125,4.58789 -3.194548,41.10255 21.664952,60.97716 30.582032,66.85937 29.396185,-20.79928 32.309441,-51.30427 30.580078,-66.97655 -10.27293,-2.92862 -20.262255,-4.45416 -30.333985,-4.47071 z"
         id="path1018-2"
         sodipodi:nodetypes="ccccc" />
      <path
         style="fill:#d40000;stroke:#6d6d6d;stroke-width:0.2;stroke-linecap:butt;stroke-linejoin:miter;stroke-miterlimit:4;stroke-dasharray:none;stroke-opacity:1"
         d="m 29.944315,-172.09906 c 18.638496,-5.46868 35.698774,-5.25017 53.756688,-0.1022 1.51995,13.77449 -1.041811,40.58599 -26.878344,58.86663 -7.83729,-5.16992 -29.686057,-22.63909 -26.878344,-58.76443 z"
         id="path1018"
         inkscape:connector-curvature="0"
         sodipodi:nodetypes="cccc" />
      <path
         style="opacity:1;fill:url(#linearGradient1065);fill-opacity:1;stroke:none;stroke-width:0.2;stroke-linecap:butt;stroke-linejoin:miter;stroke-miterlimit:4;stroke-dasharray:none;stroke-opacity:1"
         d="m 56.413538,-176.13062 c 2.122713,7.48694 2.853282,19.54013 3.289902,32.55747 l 18.789063,-11.49023 c 1.388612,-5.47805 2.36693,-11.30162 2.465047,-17.86639 -7.356377,-1.76692 -14.689857,-3.23815 -24.544012,-3.20085 z"
         id="path1041"
         inkscape:connector-curvature="0"
         sodipodi:nodetypes="ccccc" />
      <path
         inkscape:connector-curvature="0"
         style="opacity:0.23999999;fill:url(#linearGradient2679-7);fill-opacity:1;fill-rule:nonzero;stroke:#dbdbdb;stroke-width:0.2;stroke-linecap:butt;stroke-linejoin:miter;stroke-miterlimit:4;stroke-dasharray:none;stroke-opacity:1"
         d="m 57.062815,-180.45791 c -10.07173,-0.0165 -20.224909,1.47683 -30.828125,4.58789 -3.194548,41.10253 21.664952,60.97714 30.582032,66.85935 29.396185,-20.79928 32.309441,-51.30427 30.580078,-66.97653 -10.27293,-2.92862 -20.262255,-4.45416 -30.333985,-4.47071 z m -0.02148,4.32618 c 8.852121,0.0145 17.631199,1.3557 26.660156,3.92968 1.51995,13.77447 -1.042373,40.58652 -26.878906,58.86716 -7.83729,-5.16992 -29.686618,-22.63832 -26.878905,-58.76364 9.319247,-2.73434 18.245534,-4.04774 27.097655,-4.0332 z"
         id="path1018-2-3" />
    </g>
    <rect
       ry="2.9473009"
       y="-109.65118"
       x="166.10257"
       height="11.789204"
       width="45.324707"
       id="rect935"
       style="opacity:1;vector-effect:none;fill:#ffffff;fill-opacity:1;fill-rule:nonzero;stroke-width:10.31283569;stroke-linecap:butt;stroke-linejoin:miter;stroke-miterlimit:4;stroke-dasharray:none;stroke-dashoffset:0;stroke-opacity:1;filter:url(#filter5625)" />
    <circle
       r="2.8104732"
       cy="-103.67681"
       cx="172.67764"
       id="path5629"
       style="opacity:1;vector-effect:none;fill:#000000;fill-opacity:1;fill-rule:nonzero;stroke:none;stroke-width:0.2;stroke-linecap:butt;stroke-linejoin:miter;stroke-miterlimit:4;stroke-dasharray:none;stroke-dashoffset:0;stroke-opacity:1" />
    <circle
       r="2.8104732"
       cy="-103.64687"
       cx="180.54079"
       id="path5629-6"
       style="opacity:1;vector-effect:none;fill:#000000;fill-opacity:1;fill-rule:nonzero;stroke:none;stroke-width:0.2;stroke-linecap:butt;stroke-linejoin:miter;stroke-miterlimit:4;stroke-dasharray:none;stroke-dashoffset:0;stroke-opacity:1" />
    <circle
       r="2.8104732"
       cy="-103.6768"
       cx="188.67764"
       id="path5629-0"
       style="opacity:1;vector-effect:none;fill:#000000;fill-opacity:1;fill-rule:nonzero;stroke:none;stroke-width:0.2;stroke-linecap:butt;stroke-linejoin:miter;stroke-miterlimit:4;stroke-dasharray:none;stroke-dashoffset:0;stroke-opacity:1" />
    <circle
       r="2.8104732"
       cy="-103.64687"
       cx="196.54079"
       id="path5629-6-6"
       style="opacity:1;vector-effect:none;fill:#808080;fill-opacity:1;fill-rule:nonzero;stroke:none;stroke-width:0.2;stroke-linecap:butt;stroke-linejoin:miter;stroke-miterlimit:4;stroke-dasharray:none;stroke-dashoffset:0;stroke-opacity:1" />
    <circle
       r="2.8104732"
       cy="-103.64687"
       cx="204.54079"
       id="path5629-6-6-2"
       style="opacity:1;vector-effect:none;fill:#808080;fill-opacity:1;fill-rule:nonzero;stroke:none;stroke-width:0.2;stroke-linecap:butt;stroke-linejoin:miter;stroke-miterlimit:4;stroke-dasharray:none;stroke-dashoffset:0;stroke-opacity:1" />
  </g>
  <text
     xml:space="preserve"
     style="font-style:normal;font-variant:normal;font-weight:normal;font-stretch:normal;font-size:21.33333397px;line-height:1.25;font-family:'Trebuchet MS';-inkscape-font-specification:'Trebuchet MS';letter-spacing:0px;word-spacing:0px;fill:#ffffff;fill-opacity:1;stroke:#ff0606;stroke-width:0.87300003;stroke-miterlimit:4;stroke-dasharray:none;stroke-opacity:1"
     x="-0.39683336"
     y="145.04222"
     id="text5699"><tspan
       sodipodi:role="line"
       id="tspan5697"
       x="-0.39683336"
       y="145.04222"
       style="font-style:normal;font-variant:normal;font-weight:normal;font-stretch:normal;font-size:21.33333397px;font-family:'Trebuchet MS';-inkscape-font-specification:'Trebuchet MS';fill:#ffffff;stroke:#ff0606;stroke-width:0.87300003;stroke-miterlimit:4;stroke-dasharray:none;stroke-opacity:1"><tspan
   style="font-style:normal;font-variant:normal;font-weight:normal;font-stretch:normal;font-size:21.33333397px;font-family:'Trebuchet MS';-inkscape-font-specification:'Trebuchet MS';fill:#85ea2d;fill-opacity:1;stroke:#008000;stroke-opacity:1"
   id="tspan860">Swagger</tspan> <tspan
   style="font-style:normal;font-variant:normal;font-weight:normal;font-stretch:normal;font-size:21.33333397px;font-family:'Trebuchet MS';-inkscape-font-specification:'Trebuchet MS';fill:#ff0000;stroke:#9a0000;stroke-opacity:1"
   id="tspan862">Protect</tspan></tspan></text>
  <path
     style="fill:#ffffff;stroke-width:0.07651766"
     d="m 99.93679,68.311665 c -0.884736,-0.349133 -1.068054,-0.492747 -1.250119,-0.979357 -0.08805,-0.23532 -0.180661,-0.577985 -0.205808,-0.761479 -0.04184,-0.305147 -0.0316,-0.333625 0.119889,-0.333625 0.09109,0 0.370252,0.103299 0.620359,0.229553 0.59918,0.302464 0.688657,0.297493 0.688657,-0.03826 0,-0.266395 0.0018,-0.267812 0.344332,-0.267812 0.34251,0 0.34433,-0.0014 0.34433,-0.267811 0,-0.264742 0.004,-0.267812 0.33055,-0.267812 0.26855,0 0.39057,-0.05136 0.65041,-0.273775 0.28179,-0.241206 0.31984,-0.312239 0.31984,-0.597117 0,-0.691783 -0.692,-1.587099 -1.41783,-1.834416 -0.22456,-0.07652 -0.48008,-0.100546 -0.760932,-0.07156 -0.484548,0.05001 -0.473875,0.0715 -0.347546,-0.699976 0.112054,-0.684254 0.04136,-0.595145 -0.153515,0.193473 -0.100631,0.407263 -0.231722,0.752099 -0.312066,0.820892 -0.11103,0.09507 -0.129225,0.186604 -0.09162,0.460943 l 0.04692,0.342319 -0.386756,-0.04581 -0.386756,-0.04581 0.04043,0.301532 c 0.03628,0.270588 0.02344,0.301531 -0.125124,0.301531 -0.09106,0 -0.286535,-0.05054 -0.434383,-0.112317 l -0.268813,-0.112318 0.160056,0.22478 c 0.08803,0.123629 0.192888,0.245069 0.233016,0.269868 0.04012,0.0248 0.07296,0.146356 0.07296,0.270126 0,0.203282 -0.02406,0.224846 -0.248686,0.223061 -0.136772,-0.0011 -0.489712,-0.08873 -0.784304,-0.194763 -0.607478,-0.218651 -0.588591,-0.215878 -0.975448,-0.14322 -0.516016,0.09691 -0.942674,-0.08816 -1.56415,-0.678507 -0.441706,-0.419575 -0.559366,-0.577583 -0.559366,-0.751167 0,-0.120905 0.02887,-0.219826 0.06414,-0.219826 0.05533,0 0.937369,-1.07817 1.104298,-1.349853 0.03664,-0.0596 -0.149502,-0.02502 -0.491637,0.09134 -0.743585,0.252911 -0.906356,0.248117 -0.906356,-0.02669 0,-0.189648 0.184727,-0.351206 1.625999,-1.422058 l 1.626004,-1.208103 0.660861,-0.962248 c 1.337248,-1.947097 2.194065,-2.571432 4.195804,-3.057353 0.90578,-0.219876 1.73404,-0.25577 3.4455,-0.149322 0.99153,0.06167 1.06063,0.05609 1.72165,-0.138936 0.70916,-0.209237 1.93803,-0.753617 2.32797,-1.031272 0.1214,-0.08645 0.3148,-0.157179 0.42977,-0.157179 h 0.20904 l -0.0372,0.710409 c -0.0204,0.390729 -0.078,0.78671 -0.12789,0.879956 -0.0499,0.09325 -0.0701,0.169542 -0.0448,0.169542 0.0252,0 1.42201,-0.361547 3.10393,-0.803434 1.68193,-0.441891 3.16032,-0.803439 3.28533,-0.803439 0.20517,0 0.22727,0.02406 0.22727,0.247459 0,0.136101 -0.161,0.652647 -0.35778,1.147882 -0.32707,0.823142 -0.37797,0.905804 -0.59301,0.963111 -0.12938,0.03447 -1.60394,0.421154 -3.27681,0.85928 l -3.04157,0.796588 v 0.637856 c 0,0.571549 0.0139,0.633742 0.1339,0.598276 0.63289,-0.187088 5.45943,-1.424566 5.55622,-1.424566 0.20973,0 0.14909,0.350517 -0.23093,1.334802 -0.19588,0.507358 -0.37743,0.947344 -0.40344,0.977749 -0.026,0.0304 -1.16325,0.349447 -2.52721,0.708982 -1.36396,0.359535 -2.49232,0.666102 -2.50748,0.681261 -0.0151,0.01516 -0.0175,0.302162 -0.005,0.637785 l 0.0224,0.610224 1.9512,-0.520738 c 1.07316,-0.286405 2.04589,-0.522296 2.16163,-0.524201 0.18027,-0.003 0.21042,0.02723 0.21042,0.210785 0,0.117837 -0.0296,0.246961 -0.0659,0.286941 -0.0362,0.03998 -0.21365,0.461278 -0.39427,0.936216 -0.18062,0.474938 -0.34969,0.876683 -0.37571,0.892765 -0.026,0.01608 -1.3034,0.359052 -2.83861,0.762155 -3.38757,0.889479 -3.35172,0.874082 -6.08155,2.611725 -1.6745,1.06588 -1.76255,1.106558 -2.38814,1.103387 -0.38505,-0.0019 -0.6611,-0.05849 -1.066398,-0.218435 z m 5.1378,-6.373742 c 0.0866,-0.09311 0.24588,-0.59785 0.18861,-0.59785 -0.0393,0 -0.22597,0.04131 -0.41475,0.0918 -0.29266,0.07827 -0.36047,0.13488 -0.4602,0.384137 -0.0643,0.160784 -0.11697,0.305738 -0.11697,0.322119 0,0.03149 0.76515,-0.159206 0.80331,-0.200208 z m 1.53037,-0.299734 c 0.30062,-0.0757 0.34701,-0.118344 0.44658,-0.410582 l 0.11112,-0.326107 -0.42501,0.126168 c -0.37995,0.112794 -0.43545,0.156317 -0.52347,0.410581 -0.11017,0.318196 -0.0998,0.323479 0.39078,0.19994 z m -5.99408,-1.548259 c 0.65224,-0.272299 1.38408,-0.920706 1.70529,-1.51089 l 0.21748,-0.399588 -1.34352,0.909768 c -1.439006,0.974432 -1.334421,0.862187 -1.56251,1.676971 -0.02565,0.09159 0.05445,0.03193 0.199473,-0.148584 0.173737,-0.216254 0.395567,-0.365598 0.783787,-0.527677 z m 4.96213,0.278467 c 0.1037,-0.116241 0.22187,-0.558677 0.14922,-0.558677 -0.0393,0 -0.22158,0.04015 -0.40508,0.08923 -0.29307,0.07838 -0.34818,0.128488 -0.45329,0.4121 l -0.11967,0.322866 0.38706,-0.102105 c 0.21289,-0.05616 0.41168,-0.129696 0.44176,-0.163417 z"
     id="path6082"
     inkscape:connector-curvature="0"
     sodipodi:nodetypes="cscsssssscsssccssccccsccscsssssssccsscssscsscscssssscscsssscssccscssscsscccscssccscsccsccscsscscscsc" />
  <g
     id="layer1"
     transform="matrix(0.06920186,0,0,0.06920186,43.605891,50.441999)"
     style="fill:#ffffff">
    <path
       id="path818"
       d="m 153.33845,45.652481 c -1.80934,0 -3.48944,0.387729 -5.04032,0.904673 3.29558,2.19706 5.10493,5.104961 6.00963,8.400551 0.0648,0.45233 0.19386,0.775444 0.25856,1.227759 0.0648,0.387729 0.12916,0.775444 0.12916,1.163171 0.2586,5.686509 -1.48628,6.397323 -2.71403,9.757543 -1.87398,4.329529 -1.35704,8.982133 0.90466,12.730079 0.19387,0.452318 0.45234,0.969275 0.77546,1.421618 -2.45558,-16.348759 11.17919,-18.804304 13.69932,-23.90924 0.19386,-4.458761 -3.48944,-7.431263 -6.39731,-9.499092 -2.77864,-1.680104 -5.29884,-2.197062 -7.62513,-2.197062 z m 20.54903,3.683318 c -0.25858,1.486247 -0.0647,1.09853 -0.12913,1.873973 -0.0647,0.516945 -0.0647,1.163157 -0.12914,1.680102 -0.12914,0.516959 -0.2586,1.033904 -0.45236,1.550886 -0.12913,0.516945 -0.32309,1.033903 -0.51694,1.550847 -0.2586,0.516983 -0.45234,0.969301 -0.71082,1.486258 -0.19385,0.258585 -0.32309,0.516945 -0.51695,0.775443 -0.12914,0.193857 -0.25858,0.387715 -0.38771,0.581572 -0.32309,0.452355 -0.64621,0.904673 -0.96929,1.292387 -0.38774,0.387729 -0.71083,0.840046 -1.16319,1.163171 0,0.0647 0,0.0647 0,0.0647 -0.38771,0.3231 -0.77543,0.710815 -1.22775,1.033903 -1.35702,1.033902 -2.90787,1.809344 -4.32952,2.778644 -0.45231,0.323088 -0.90468,0.581587 -1.29238,0.9693 -0.45233,0.323088 -0.84006,0.646176 -1.22776,1.033903 -0.45236,0.387715 -0.77545,0.775442 -1.16318,1.227784 -0.32309,0.387728 -0.7108,0.840048 -0.96927,1.292402 -0.32312,0.452317 -0.6462,0.904661 -0.9047,1.35699 -0.25857,0.516944 -0.45233,0.969299 -0.71081,1.486245 -0.19385,0.516944 -0.38773,0.969301 -0.51695,1.486244 -0.19386,0.581586 -0.3231,1.098544 -0.45234,1.615514 -0.0647,0.258583 -0.0647,0.58156 -0.12914,0.840045 -0.0648,0.258584 -0.0648,0.516945 -0.12913,0.775443 0,0.516944 -0.0647,1.09853 -0.0647,1.615475 0,0.387727 0,0.775441 0.0647,1.163169 0,0.516946 0.0647,1.033892 0.19385,1.615476 0.0647,0.516944 0.19384,1.033902 0.32312,1.550885 0.19386,0.516944 0.3231,1.033902 0.51694,1.550847 0.12916,0.323126 0.32309,0.646213 0.45236,0.904673 l -14.86252,-5.75114 c -2.52018,-0.710815 -4.9757,-1.35699 -7.49588,-1.938576 -1.357,-0.323087 -2.714,-0.646198 -4.07102,-0.969299 -3.87719,-0.77543 -7.81895,-1.356991 -11.76076,-1.744705 -0.12913,0 -0.19385,-0.06471 -0.32309,-0.06471 -3.8772,-0.387714 -7.68973,-0.581572 -11.5669,-0.581572 -2.84328,0 -5.68656,0.129131 -8.465201,0.323088 -3.941798,0.258584 -7.883602,0.775442 -11.825373,1.421617 -0.969302,0.129144 -1.938602,0.323125 -2.907905,0.516984 -2.003199,0.387689 -3.941771,0.840044 -5.815742,1.292386 -0.9693,0.258584 -1.938602,0.516958 -2.907903,0.775419 -0.96927,0.387713 -1.87394,0.84007 -2.778642,1.227784 -0.710811,0.323088 -1.421619,0.646187 -2.132431,0.9693 -0.129139,0.06471 -0.25858,0.06471 -0.32309,0.129144 -0.64621,0.323087 -1.22779,0.581547 -1.809341,0.904671 -0.193861,0.06471 -0.323122,0.129132 -0.452351,0.193859 -0.71081,0.323089 -1.421618,0.710803 -2.003201,1.033902 -0.45235,0.193858 -0.90467,0.452343 -1.292389,0.646213 -0.193862,0.129131 -0.452353,0.258572 -0.581582,0.323088 -0.581579,0.323088 -1.16316,0.646174 -1.680111,0.9693 -0.581581,0.323087 -1.098532,0.646175 -1.550882,0.969263 -0.452318,0.323125 -0.904667,0.581585 -1.29239,0.904672 -0.06474,0.06471 -0.129139,0.06471 -0.193861,0.129145 -0.387719,0.258583 -0.840039,0.581571 -1.227758,0.904696 0,0 -0.06473,0.0647 -0.12914,0.129142 -0.32309,0.258584 -0.646212,0.516947 -0.969301,0.775407 -0.129138,0.06471 -0.258581,0.193857 -0.38772,0.258583 -0.32309,0.258586 -0.64618,0.581586 -0.969271,0.84007 -0.06473,0.129143 -0.193859,0.193858 -0.258581,0.258585 -0.38772,0.387715 -0.775441,0.710802 -1.163161,1.09853 -0.06473,0 -0.06473,0.06471 -0.129139,0.129131 -0.38772,0.3231 -0.775439,0.710816 -1.163159,1.098543 -0.06473,0.06471 -0.06473,0.12913 -0.12914,0.12913 -0.32309,0.323089 -0.64618,0.646213 -0.969301,1.033902 -0.129137,0.129143 -0.32309,0.258586 -0.452319,0.387715 -0.32309,0.387728 -0.710811,0.775443 -1.09853,1.163171 -0.06473,0.129132 -0.19386,0.193858 -0.258582,0.323087 -0.516952,0.516983 -0.969302,1.033928 -1.486252,1.550885 -0.06473,0.06471 -0.129138,0.129128 -0.193859,0.193858 -1.033931,1.098529 -2.132463,2.197059 -3.295594,3.166352 -1.163159,1.0339 -2.390922,2.0032 -3.618711,2.84325 -1.292392,0.9047 -2.520152,1.68011 -3.877173,2.45555 -1.292392,0.71079 -2.649412,1.35701 -4.071032,1.9386 -1.357022,0.58157 -2.778641,1.09854 -4.200264,1.55085 -2.714041,0.58157 -5.492684,1.68011 -7.883605,1.87397 -0.51695,0 -1.098531,0.12915 -1.615482,0.19385 -0.581578,0.12914 -1.098529,0.25859 -1.615479,0.38774 -0.516951,0.19384 -1.033931,0.38771 -1.550883,0.58156 -0.516951,0.19386 -1.033901,0.45235 -1.550852,0.71083 -0.45235,0.32308 -0.969299,0.58157 -1.421651,0.90466 -0.452322,0.32309 -0.904672,0.7108 -1.292393,1.09853 -0.452319,0.32312 -0.904669,0.77545 -1.29239,1.16315 -0.387721,0.45237 -0.77544,0.84008 -1.0985304,1.29239 -0.3230901,0.51695 -0.7108108,0.96931 -0.9693016,1.48627 -0.32309,0.45235 -0.6461799,0.96929 -0.9046707,1.48622 -0.2585815,0.58161 -0.5169498,1.09855 -0.7108107,1.68014 -0.1938599,0.51695 -0.3877199,1.09852 -0.5815799,1.68011 -0.1291382,0.51694 -0.2585813,1.0339 -0.3230898,1.55083 0,0.0648 -0.064719,0.12916 -0.064719,0.19387 -0.1291392,0.58161 -0.1291392,1.35706 -0.1938608,1.74479 -0.064719,0.45232 -0.1291373,0.84002 -0.1291373,1.29238 0,0.25858 0,0.58155 0.064719,0.84003 0.064719,0.45236 0.1291371,0.84007 0.2585814,1.22782 0.1291382,0.38766 0.2585815,0.77539 0.4523201,1.16312 0,0.0647 0,0.0647 0,0.0647 0.1938599,0.38775 0.4523506,0.77545 0.7108108,1.16317 0.2585814,0.38772 0.5169804,0.77544 0.8400704,1.16317 0.3230899,0.32309 0.7108109,0.71078 1.0985304,1.03389 0.3877209,0.38772 0.7754421,0.71081 1.2277611,1.0339 1.550881,1.35703 1.938601,1.80938 3.941806,2.84327 0.323087,0.19387 0.64621,0.32311 1.03393,0.51697 0.06473,0 0.129139,0.0647 0.193859,0.0647 0,0.12913 0,0.19387 0.06473,0.32313 0.06472,0.51696 0.193859,1.03389 0.32309,1.55086 0.129138,0.58158 0.323121,1.09855 0.516981,1.55087 0.19386,0.38773 0.32309,0.77543 0.516951,1.16317 0.06472,0.12915 0.12914,0.25858 0.19386,0.32309 0.258581,0.51694 0.51695,0.96932 0.77541,1.42162 0.323121,0.45233 0.64621,0.90466 0.969299,1.35703 0.323092,0.3877 0.710813,0.84004 1.098532,1.22775 0.387721,0.38773 0.775442,0.71083 1.227793,1.09852 0,0 0.06473,0.0648 0.129137,0.0648 0.387722,0.32312 0.77544,0.64622 1.163162,0.90466 0.45232,0.32311 0.90467,0.58157 1.421619,0.84007 0.452351,0.25858 0.969302,0.51695 1.486252,0.71082 0.387721,0.19386 0.84004,0.32311 1.292392,0.45234 0.06473,0.0648 0.129138,0.0648 0.258582,0.12916 0.258581,0.0648 0.581548,0.12912 0.840039,0.19384 -0.193859,3.48945 -0.258582,6.78504 0.258583,7.94822 0.58155,1.29238 3.424821,-2.64941 6.268094,-7.17277 -0.387719,4.45875 -0.646211,9.6929 0,11.24381 0.710809,1.61545 4.587982,-3.42487 7.948203,-8.98215 45.815262,-10.59757 87.62418,21.066 92.01829,65.78273 -0.84006,-6.97892 -9.43446,-10.85608 -13.37623,-9.88677 -1.93861,4.78183 -5.2342,10.92068 -10.53299,14.73324 0.45233,-4.2649 0.25856,-8.65901 -0.64619,-12.92392 -1.42165,5.94501 -4.2003,11.50232 -8.01287,16.28415 v 0 c -6.138857,0.45232 -12.277729,-2.52019 -15.50872,-6.97891 -0.258582,-0.19388 -0.323091,-0.58159 -0.516951,-0.84006 -0.193862,-0.45238 -0.387719,-0.90467 -0.516951,-1.35703 -0.193859,-0.45232 -0.323089,-0.90467 -0.387719,-1.35699 -0.06473,-0.45236 -0.06473,-0.90469 -0.06473,-1.42163 0,-0.32312 0,-0.6462 0,-0.96928 0.06473,-0.45238 0.19386,-0.90471 0.323091,-1.35705 0.129138,-0.45232 0.25858,-0.90467 0.45235,-1.35701 0.258582,-0.45231 0.45232,-0.90466 0.775441,-1.35698 1.09853,-3.10178 1.09853,-5.62192 -0.90467,-7.10816 -0.387721,-0.25858 -0.775441,-0.45236 -1.227791,-0.64622 -0.258584,-0.0647 -0.581582,-0.19386 -0.84004,-0.25857 -0.193861,-0.0647 -0.32309,-0.12916 -0.516951,-0.19387 -0.452351,-0.12914 -0.904702,-0.25859 -1.357022,-0.32309 -0.45235,-0.12913 -0.90467,-0.19386 -1.35702,-0.19386 -0.452321,-0.0648 -0.969303,-0.12914 -1.421622,-0.12914 -0.323089,0 -0.64621,0.0647 -0.969301,0.0647 -0.516949,0 -0.969299,0.0648 -1.421621,0.19386 -0.45235,0.0648 -0.904669,0.12913 -1.357019,0.25856 -0.452322,0.12915 -0.904673,0.25859 -1.357023,0.45238 -0.452319,0.19385 -0.840041,0.38771 -1.292389,0.58157 -0.38769,0.19387 -0.775412,0.45232 -1.227761,0.64618 -15.056371,9.82217 -6.074235,32.82674 4.200264,39.48256 -3.877175,0.71081 -7.818947,1.5509 -8.917479,2.39092 -0.06473,0.0647 -0.129138,0.12915 -0.129138,0.12915 2.778642,1.68009 5.686516,3.10173 8.723616,4.32949 4.135665,1.35702 8.529786,2.58479 10.468387,3.10176 0,0 0,0.0647 0,0.0647 5.363424,1.09854 10.79148,1.48626 16.284139,1.16317 28.62649,-2.00321 52.0834,-23.78003 56.3483,-52.47111 0.12914,0.58159 0.25858,1.09852 0.38772,1.68012 v 0 c 0.19387,1.16312 0.45232,2.3909 0.58155,3.61867 0,0 0,0 0,0.0648 0.12914,0.58158 0.19386,1.16315 0.25858,1.6801 0,0.12914 0,0.19386 0,0.25859 0.0648,0.58157 0.12915,1.16316 0.12915,1.6801 0.0647,0.71082 0.12914,1.42162 0.12914,2.13247 0,0.32309 0,0.64619 0,1.0339 0,0.32312 0.0647,0.7108 0.0647,1.03392 0,0.38773 -0.0647,0.77542 -0.0647,1.16314 0,0.32313 0,0.64621 0,0.90467 0,0.45236 -0.0648,0.84006 -0.0648,1.2924 0,0.25856 0,0.51696 -0.0647,0.84006 0,0.45236 -0.0647,0.90466 -0.0647,1.42162 -0.0648,0.19386 -0.0648,0.38772 -0.0648,0.58159 -0.0647,0.51696 -0.12914,0.9693 -0.19387,1.48626 0,0.19387 0,0.38771 -0.0647,0.58159 -0.0648,0.64617 -0.19385,1.22777 -0.25855,1.87394 0,0 0,0.0648 0,0.0648 v 0.0647 c -0.12914,0.58157 -0.2586,1.22776 -0.38775,1.80933 0,0.0647 0,0.12914 0,0.19387 -0.12912,0.58156 -0.25858,1.16316 -0.3877,1.74471 0,0.0648 -0.0647,0.19387 -0.0647,0.25856 -0.12916,0.5816 -0.2586,1.16317 -0.45232,1.74478 0,0.0647 0,0.12912 0,0.19384 -0.19386,0.64617 -0.38773,1.22776 -0.51698,1.80934 -0.0647,0.0647 -0.0647,0.12914 -0.0647,0.12914 -0.19387,0.64621 -0.38771,1.29239 -0.58155,1.93858 -0.25858,0.64621 -0.45234,1.22778 -0.71081,1.87398 -0.25857,0.6462 -0.45236,1.2924 -0.71083,1.87396 -0.25859,0.64622 -0.51697,1.2278 -0.77543,1.87397 0,0 -0.0648,0 -0.0648,0 -0.2586,0.58157 -0.51699,1.22779 -0.8401,1.80938 0,0 0,0 0,0 0,0 0,0 0,0 -0.0647,0.19383 -0.12912,0.32309 -0.19384,0.4523 -0.0647,0.0648 -0.0647,0.12914 -0.12914,0.19388 -4.20026,8.46514 -10.40377,15.89639 -18.15809,21.71217 v 0 c -0.51695,0.32309 -1.03392,0.71082 -1.55086,1.09852 0,0 0,0 0,0 -0.12915,0.12915 -0.32312,0.19388 -0.45235,0.32309 -0.45235,0.3231 -0.90468,0.64618 -1.42161,0.96931 l 0.19385,0.38772 h 0.0647 v 0 c 0.90466,-0.12913 1.80934,-0.25858 2.71402,-0.38772 h 0.0647 c 1.68012,-0.25858 3.36023,-0.58158 5.04035,-0.90467 0.45231,-0.0648 0.9693,-0.19385 1.42161,-0.32312 0.32309,-0.0648 0.58158,-0.12913 0.90467,-0.19386 0.45235,-0.0648 0.90468,-0.19386 1.35704,-0.25857 0.3877,-0.12914 0.77543,-0.19388 1.16314,-0.3231 6.46195,-1.55089 12.73007,-3.68335 18.73965,-6.20349 -10.27448,14.02243 -24.03847,25.33087 -40.12874,32.76212 7.43127,-0.51696 14.86251,-1.74472 22.03528,-3.81254 26.0417,-7.68977 47.94772,-25.20165 61.06549,-48.7878 -2.6494,14.92714 -8.5944,29.14344 -17.38265,41.55041 6.26809,-4.13569 12.01923,-8.91753 17.25342,-14.34557 14.47478,-15.12097 23.97388,-34.31296 27.20483,-54.92665 2.19708,10.2099 2.84328,20.74293 1.87398,31.14666 46.65534,-65.07192 3.87717,-132.53476 -14.02244,-150.305141 -0.0648,-0.129133 -0.12914,-0.193858 -0.12914,-0.323089 -0.0648,0.0647 -0.0648,0.0647 -0.0648,0.129144 0,-0.06471 0,-0.06471 -0.0647,-0.129144 0,0.775442 -0.0647,1.550848 -0.12914,2.326291 -0.19387,1.48625 -0.38771,2.907879 -0.64621,4.329529 -0.32308,1.42162 -0.71081,2.84322 -1.09854,4.26488 -0.45232,1.35699 -0.96925,2.77862 -1.55085,4.13565 -0.58158,1.29237 -1.22778,2.64939 -1.93859,3.9418 -0.71082,1.22778 -1.48625,2.52016 -2.32629,3.6833 -0.84006,1.2278 -1.74474,2.39093 -2.64943,3.48944 -0.96931,1.16318 -2.00319,2.1971 -3.03712,3.23101 -0.64618,0.58158 -1.22775,1.09853 -1.87398,1.61546 -0.51694,0.45236 -0.96927,0.84009 -1.48625,1.29239 -1.16314,0.90468 -2.32629,1.74474 -3.61867,2.52019 -1.22778,0.77542 -2.52014,1.55086 -3.81254,2.19707 -1.35702,0.64619 -2.71404,1.22776 -4.07104,1.80935 -1.35702,0.51693 -2.77864,0.96928 -4.20031,1.35701 -1.42161,0.3877 -2.90785,0.71081 -4.32949,0.96928 -1.48623,0.25858 -2.97249,0.38771 -4.39412,0.51697 -1.03392,0.0647 -2.06782,0.12915 -3.10175,0.12915 -1.48626,0 -2.97248,-0.12915 -4.39412,-0.25858 -1.48624,-0.12914 -2.97251,-0.32314 -4.39413,-0.64623 -1.48625,-0.25858 -2.9079,-0.64621 -4.32953,-1.09851 h -0.0647 c 1.42163,-0.12914 2.84327,-0.2586 4.26492,-0.51697 1.48622,-0.25858 2.90785,-0.58156 4.3295,-0.96931 1.42162,-0.38771 2.84325,-0.84006 4.20026,-1.357 1.42162,-0.51696 2.77865,-1.16313 4.07105,-1.80936 1.357,-0.64621 2.58478,-1.357 3.87716,-2.13244 1.22776,-0.84005 2.45554,-1.68009 3.61869,-2.58479 1.16316,-0.90466 2.26167,-1.87394 3.29562,-2.90786 1.09853,-0.96932 2.06781,-2.06784 3.03711,-3.16638 0.96927,-1.16312 1.87396,-2.32628 2.71402,-3.48944 0.12915,-0.19387 0.25859,-0.45232 0.38774,-0.64619 0.64617,-1.03392 1.29235,-2.06783 1.87392,-3.10176 0.71083,-1.29239 1.35704,-2.58479 1.9386,-3.94177 0.58159,-1.35702 1.09855,-2.71405 1.55089,-4.13566 0.45232,-1.35703 0.77542,-2.77864 1.09853,-4.200258 0.25859,-1.486258 0.51694,-2.90791 0.64619,-4.329528 0.12914,-1.486244 0.25857,-2.972503 0.25857,-4.394119 0,-1.033928 -0.0648,-2.06783 -0.12912,-3.101733 -0.12915,-1.486246 -0.32311,-2.9079 -0.51696,-4.329519 -0.25859,-1.486257 -0.58157,-2.907873 -0.96931,-4.329529 -0.45231,-1.356991 -0.90467,-2.778634 -1.42161,-4.135623 -0.51699,-1.357028 -1.16315,-2.714042 -1.80938,-4.006443 -0.71081,-1.292388 -1.42161,-2.584776 -2.19704,-3.812536 -0.84005,-1.22776 -1.68013,-2.390917 -2.5848,-3.554087 -0.96927,-1.098531 -1.93857,-2.19706 -2.97251,-3.29559 -0.51694,-0.516947 -1.09853,-1.098532 -1.6801,-1.615476 -2.90787,-2.2617 -5.945,-4.394159 -8.9821,-6.332732 -0.45233,-0.258574 -0.84005,-0.452342 -1.2924,-0.646212 -2.13246,-1.356992 -4.13566,-2.067831 -6.13885,-2.714007 z"
       style="fill:#ffffff;fill-opacity:1;fill-rule:evenodd;stroke:none;stroke-width:0.80775058"
       inkscape:connector-curvature="0" />
  </g>
</svg>
